<svg width="16" height="17" viewBox="0 0 16 17" fill="none" xmlns="http://www.w3.org/2000/svg">
<g id="charm:menu-kebab">
<g id="Group">
<path id="Vector" d="M8 3.75049C8.41421 3.75049 8.75 3.4147 8.75 3.00049C8.75 2.58627 8.41421 2.25049 8 2.25049C7.58579 2.25049 7.25 2.58627 7.25 3.00049C7.25 3.4147 7.58579 3.75049 8 3.75049Z" stroke="#6B7280" stroke-width="1.5" stroke-linecap="round" stroke-linejoin="round"/>
<path id="Vector_2" d="M8 9.25049C8.41421 9.25049 8.75 8.9147 8.75 8.50049C8.75 8.08627 8.41421 7.75049 8 7.75049C7.58579 7.75049 7.25 8.08627 7.25 8.50049C7.25 8.9147 7.58579 9.25049 8 9.25049Z" stroke="#6B7280" stroke-width="1.5" stroke-linecap="round" stroke-linejoin="round"/>
<path id="Vector_3" d="M8 14.7505C8.41421 14.7505 8.75 14.4147 8.75 14.0005C8.75 13.5863 8.41421 13.2505 8 13.2505C7.58579 13.2505 7.25 13.5863 7.25 14.0005C7.25 14.4147 7.58579 14.7505 8 14.7505Z" stroke="#6B7280" stroke-width="1.5" stroke-linecap="round" stroke-linejoin="round"/>
</g>
</g>
</svg>
