<svg width="23" height="17" viewBox="0 0 23 17" fill="none" xmlns="http://www.w3.org/2000/svg">
<g id="Group">
<path id="Vector" d="M20.8559 7.22762C21.3299 7.84762 21.3299 8.68463 20.8559 9.30363C19.3629 11.2526 15.7809 15.2656 11.5989 15.2656C7.41689 15.2656 3.83489 11.2526 2.34189 9.30363C2.11127 9.00676 1.98608 8.64154 1.98608 8.26562C1.98608 7.88971 2.11127 7.52449 2.34189 7.22762C3.83489 5.27862 7.41689 1.26562 11.5989 1.26562C15.7809 1.26562 19.3629 5.27862 20.8559 7.22762V7.22762Z" stroke="#374151" stroke-width="2" stroke-linecap="round" stroke-linejoin="round"/>
<path id="Vector_2" d="M11.5989 11.2656C13.2557 11.2656 14.5989 9.92248 14.5989 8.26562C14.5989 6.60877 13.2557 5.26562 11.5989 5.26562C9.94202 5.26562 8.59888 6.60877 8.59888 8.26562C8.59888 9.92248 9.94202 11.2656 11.5989 11.2656Z" stroke="#374151" stroke-width="2" stroke-linecap="round" stroke-linejoin="round"/>
</g>
</svg>
