<svg width="24" height="24" viewBox="0 0 1024 1024" fill="none" xmlns="http://www.w3.org/2000/svg">
<path d="M512.5 390.6C482.6 390.6 454.6 402.2 433.4 423.4C412.3 444.6 400.6 472.6 400.6 502.5C400.6 532.4 412.3 560.4 433.4 581.6C454.6 602.7 482.6 614.4 512.5 614.4C542.4 614.4 570.4 602.7 591.6 581.6C612.7 560.4 624.4 532.4 624.4 502.5C624.4 472.6 612.7 444.6 591.6 423.4C581.245 412.966 568.921 404.693 555.342 399.062C541.763 393.431 527.2 390.555 512.5 390.6ZM924.8 626.1L859.4 570.2C862.5 551.2 864.1 531.8 864.1 512.5C864.1 493.2 862.5 473.7 859.4 454.8L924.8 398.9C929.74 394.671 933.276 389.038 934.938 382.75C936.599 376.462 936.307 369.818 934.1 363.7L933.2 361.1C915.201 310.769 888.232 264.116 853.6 223.4L851.8 221.3C847.595 216.355 841.99 212.801 835.724 211.105C829.458 209.409 822.825 209.651 816.7 211.8L735.5 240.7C705.5 216.1 672.1 196.7 635.9 183.2L620.2 98.3C619.016 91.9042 615.913 86.0202 611.305 81.4298C606.696 76.8393 600.8 73.7597 594.4 72.6L591.7 72.1C539.7 62.7 484.9 62.7 432.9 72.1L430.2 72.6C423.8 73.7597 417.904 76.8393 413.295 81.4298C408.687 86.0202 405.585 91.9042 404.4 98.3L388.6 183.6C352.743 197.208 319.339 216.561 289.7 240.9L207.9 211.8C201.777 209.634 195.139 209.383 188.87 211.08C182.6 212.777 176.995 216.341 172.8 221.3L171 223.4C136.429 264.159 109.467 310.801 91.4 361.1L90.5 363.7C86 376.2 89.7 390.2 99.8 398.9L166 455.4C162.9 474.2 161.4 493.4 161.4 512.4C161.4 531.6 162.9 550.8 166 569.4L100 625.9C95.0596 630.129 91.5236 635.762 89.8624 642.05C88.2012 648.338 88.4933 654.982 90.7 661.1L91.6 663.7C109.7 714 136.4 760.5 171.2 801.4L173 803.5C177.205 808.445 182.81 811.999 189.076 813.695C195.342 815.391 201.975 815.149 208.1 813L289.9 783.9C319.7 808.4 352.9 827.8 388.8 841.2L404.6 926.5C405.785 932.896 408.887 938.78 413.495 943.37C418.104 947.961 424 951.04 430.4 952.2L433.1 952.7C485.612 962.151 539.389 962.151 591.9 952.7L594.6 952.2C601 951.04 606.896 947.961 611.505 943.37C616.113 938.78 619.216 932.896 620.4 926.5L636.1 841.6C672.3 828 705.7 808.7 735.7 784.1L816.9 813C823.023 815.166 829.661 815.417 835.93 813.72C842.2 812.023 847.805 808.459 852 803.5L853.8 801.4C888.6 760.3 915.3 714 933.4 663.7L934.3 661.1C938.6 648.7 934.9 634.8 924.8 626.1ZM512.5 678.3C415.4 678.3 336.7 599.6 336.7 502.5C336.7 405.4 415.4 326.7 512.5 326.7C609.6 326.7 688.3 405.4 688.3 502.5C688.3 599.6 609.6 678.3 512.5 678.3Z" fill="currentColor"/>
</svg>
